<?xml version="1.0" encoding="UTF-8"?>
<svg id="_Слой_1" data-name="Слой_1" xmlns="http://www.w3.org/2000/svg" version="1.1" viewBox="0 0 129.6 138" fill="white">
  <path d="M79.43,137.4v-67.8l-14.54,5.23-14.13-5.23v67.8l-12.35-6.5-5.57-4V42.6l31.97,9.63,31.16-9.54c.48-.26,1.37.63,1.37.81v84l-17.92,9.9Z"/>
  <path d="M20.9,39v82.2c-6.93-3.15-13.23-7.47-19.71-11.4V32.4l19.71,6.6Z"/>
  <path d="M129,32.4v77.7c-1.77,1.87-3.97,3.3-6.17,4.6-1.93,1.14-9.34,5.27-11,5.75-.65.19-1.29.19-1.94.14l-.53-81.53,19.64-6.67Z"/>
  <polygon points="129 .6 129 22.2 71.67 39 71.67 17.4 129 .6"/>
  <polygon points="57.93 39.6 1.19 22.2 1.19 .6 57.93 18.3 57.93 39.6"/>
</svg>